<?xml version="1.0" standalone="no"?>
<!DOCTYPE svg PUBLIC "-//W3C//DTD SVG 20010904//EN"
 "http://www.w3.org/TR/2001/REC-SVG-20010904/DTD/svg10.dtd">
<svg version="1.0" xmlns="http://www.w3.org/2000/svg"
 width="120.000000pt" height="120.000000pt" viewBox="0 0 120.000000 120.000000"
 preserveAspectRatio="xMidYMid meet">
<metadata>
Created by potrace 1.11, written by Peter Selinger 2001-2013
</metadata>
<g transform="translate(0.000000,120.000000) scale(0.100000,-0.100000)"
fill="#000000" stroke="none">
<path d="M672 1172 c-101 -40 -180 -148 -189 -258 -3 -33 2 -84 13 -128 19
-80 14 -156 -12 -177 -36 -30 -117 -3 -147 48 -23 39 -25 52 -26 123 l-1 54
-59 -62 c-85 -88 -132 -186 -134 -278 -1 -88 6 -129 38 -200 73 -166 238 -271
440 -281 248 -13 438 128 500 372 26 104 20 158 -36 326 -52 154 -58 204 -34
263 7 16 5 17 -16 11 -69 -20 -139 -74 -139 -108 0 -7 -14 13 -31 43 -28 52
-114 150 -131 150 -4 0 -4 -10 1 -22 14 -39 4 -208 -14 -226 -15 -16 -67 103
-68 157 -1 71 30 143 82 188 31 27 21 28 -37 5z"/>
</g>
</svg>
